# Blender v2.77 (sub 0) OBJ File: ''
# www.blender.org
mtllib cubes.mtl
o Cube.001
v 1.000000 -1.000000 -4.000000
v 1.000000 -1.000000 -2.000000
v -1.000000 -1.000000 -2.000000
v -1.000000 -1.000000 -4.000000
v 1.000000 1.000000 -4.000000
v 0.999999 1.000000 -1.999999
v -1.000000 1.000000 -2.000000
v -1.000000 1.000000 -4.000000
vn 0.000000 -1.000000 0.000000
vn 0.000000 1.000000 0.000000
vn 1.000000 -0.000000 0.000000
vn 0.000000 -0.000000 1.000000
vn -1.000000 -0.000000 -0.000000
vn 0.000000 0.000000 -1.000000
usemtl Material
s off
f 1//1 3//1 4//1
f 8//2 6//2 5//2
f 5//3 2//3 1//3
f 6//4 3//4 2//4
f 7//5 4//5 3//5
f 1//6 8//6 5//6
f 1//1 2//1 3//1
f 8//2 7//2 6//2
f 5//3 6//3 2//3
f 6//4 7//4 3//4
f 7//5 8//5 4//5
f 1//6 4//6 8//6
o Cube
v 1.000000 -1.000000 -1.000000
v 1.000000 -1.000000 1.000000
v -1.000000 -1.000000 1.000000
v -1.000000 -1.000000 -1.000000
v 1.154190 0.615355 -0.721037
v 0.813154 1.416254 1.079590
v -1.154190 1.384645 0.721037
v -0.813154 0.583746 -1.079589
v 1.206494 1.263883 -0.947339
v 0.865458 2.530407 0.562500
v -0.760850 1.134595 -1.283261
v -1.101885 2.401118 0.226578
v 1.253312 1.891161 -1.462954
v 0.912276 3.157684 0.046885
v -0.714032 1.761873 -1.798876
v -1.055067 3.028396 -0.289037
vn 0.000000 -1.000000 0.000000
vn 0.981400 0.040900 0.187400
vn 0.995500 -0.095000 0.000000
vn -0.000000 -0.032900 0.999500
vn -0.993100 0.117200 -0.000000
vn 0.174900 0.151300 -0.972900
vn -0.983700 -0.064600 -0.168000
vn -0.980600 0.021000 -0.195100
vn 0.179900 -0.337000 -0.924200
vn -0.168000 0.438200 0.883000
vn 0.057600 0.771200 -0.633900
vn 0.170500 -0.633300 -0.754900
vn -0.170500 0.633300 0.754900
vn 0.983700 0.064600 0.168000
vn 0.981400 -0.012400 0.191400
vn 0.985400 0.071100 0.155000
vn -0.179900 0.102800 0.978300
vn -0.985300 -0.081300 -0.150400
vn 0.000000 -0.050200 -0.998700
vn -0.981400 -0.040700 -0.187500
vn 0.173100 -0.356000 -0.918300
vn -0.179500 0.421100 0.889100
usemtl Material
s off
f 10//7 12//7 9//7
f 14//8 17//8 18//8
f 13//9 10//9 9//9
f 14//10 11//10 10//10
f 11//11 16//11 12//11
f 9//12 16//12 13//12
f 20//13 23//13 19//13
f 15//14 19//14 16//14
f 13//15 19//15 17//15
f 14//16 20//16 15//16
f 23//17 22//17 21//17
f 19//18 21//18 17//18
f 18//19 24//19 20//19
f 17//20 22//20 18//20
f 10//7 11//7 12//7
f 14//21 13//21 17//21
f 13//22 14//22 10//22
f 14//23 15//23 11//23
f 11//24 15//24 16//24
f 9//25 12//25 16//25
f 20//13 24//13 23//13
f 15//26 20//26 19//26
f 13//27 16//27 19//27
f 14//28 18//28 20//28
f 23//17 24//17 22//17
f 19//18 23//18 21//18
f 18//19 22//19 24//19
f 17//20 21//20 22//20
