# Blender v2.77 (sub 0) OBJ File: ''
# www.blender.org
mtllib cubodistorcido.mtl
o Cube
v 2.150750 -1.000000 -0.902459
v 2.150750 -1.000000 1.097541
v 0.150750 -1.000000 1.097541
v 0.150750 -1.000000 -0.902459
v 2.150750 1.308783 -0.902458
v 2.150749 1.308783 1.097542
v 0.150750 1.308783 1.097541
v 0.150750 1.308783 -0.902459
v 2.150750 2.460409 -0.810700
v 2.150749 1.623518 1.005783
v 0.150750 2.460410 -0.810701
v 0.150750 1.623518 1.005783
v 2.150750 3.667836 -0.254414
v 2.150749 2.830945 1.562070
v 0.150750 3.667837 -0.254414
v 0.150750 2.830945 1.562069
vn 0.000000 -1.000000 0.000000
vn 0.000000 0.079400 -0.996800
vn 1.000000 -0.000000 0.000000
vn -0.000000 -0.000000 1.000000
vn -1.000000 -0.000000 -0.000000
vn 0.000000 0.000000 -1.000000
vn -0.000000 -0.418400 0.908200
vn -0.000000 0.279900 0.960000
vn -0.000000 0.908200 0.418400
vn 0.000000 0.418400 -0.908200
usemtl Material
s off
f 1//1 3//1 4//1
f 8//2 9//2 5//2
f 5//3 2//3 1//3
f 6//4 3//4 2//4
f 7//5 4//5 3//5
f 1//6 8//6 5//6
f 12//7 14//7 16//7
f 7//8 10//8 12//8
f 5//3 10//3 6//3
f 8//5 12//5 11//5
f 15//9 14//9 13//9
f 9//3 14//3 10//3
f 12//5 15//5 11//5
f 11//10 13//10 9//10
f 1//1 2//1 3//1
f 8//2 11//2 9//2
f 5//3 6//3 2//3
f 6//4 7//4 3//4
f 7//5 8//5 4//5
f 1//6 4//6 8//6
f 12//7 10//7 14//7
f 7//8 6//8 10//8
f 5//3 9//3 10//3
f 8//5 7//5 12//5
f 15//9 16//9 14//9
f 9//3 13//3 14//3
f 12//5 16//5 15//5
f 11//10 15//10 13//10
